<?xml version="1.0" encoding="UTF-8" standalone="no"?>
<svg
   xmlns:dc="http://purl.org/dc/elements/1.1/"
   xmlns:cc="http://creativecommons.org/ns#"
   xmlns:rdf="http://www.w3.org/1999/02/22-rdf-syntax-ns#"
   xmlns:svg="http://www.w3.org/2000/svg"
   xmlns="http://www.w3.org/2000/svg"
   xmlns:sodipodi="http://sodipodi.sourceforge.net/DTD/sodipodi-0.dtd"
   xmlns:inkscape="http://www.inkscape.org/namespaces/inkscape"
   sodipodi:docname="boat-robinson.svg"
   inkscape:version="1.0 (4035a4f, 2020-05-01)"
   id="svg8"
   version="1.1"
   viewBox="0 0 415.41135 20.66503"
   height="20.66503mm"
   width="415.41135mm">
  <defs
     id="defs2" />
  <sodipodi:namedview
     inkscape:window-maximized="0"
     inkscape:window-y="0"
     inkscape:window-x="0"
     inkscape:window-height="1080"
     inkscape:window-width="1920"
     inkscape:snap-midpoints="false"
     inkscape:pagecheckerboard="true"
     showguides="true"
     inkscape:snap-bbox="false"
     inkscape:snap-others="false"
     inkscape:object-nodes="true"
     inkscape:snap-nodes="true"
     showgrid="false"
     inkscape:document-rotation="0"
     inkscape:current-layer="layer2"
     inkscape:document-units="mm"
     inkscape:cy="-195.47409"
     inkscape:cx="571.72171"
     inkscape:zoom="0.69933919"
     inkscape:pageshadow="2"
     inkscape:pageopacity="1"
     borderopacity="1.0"
     bordercolor="#666666"
     pagecolor="#fbffff"
     id="base">
    <sodipodi:guide
       id="guide2944"
       orientation="0,1889.7638"
       position="0.022079075,10.332775" />
  </sodipodi:namedview>
  <metadata
     id="metadata5">
    <rdf:RDF>
      <cc:Work
         rdf:about="">
        <dc:format>image/svg+xml</dc:format>
        <dc:type
           rdf:resource="http://purl.org/dc/dcmitype/StillImage" />
        <dc:title></dc:title>
      </cc:Work>
    </rdf:RDF>
  </metadata>
  <g
     transform="translate(-76.0725,-39.396491)"
     inkscape:label="Layer 2"
     id="layer2"
     inkscape:groupmode="layer">
    <path
       d="m 698.73633,149.38086 c -91.0862,0 -278.5458,15.20105 -411.13477,38.57031 132.58776,23.37002 320.04553,38.57227 411.13086,38.57227 151.59217,0 487.93478,-0.15039 591.24608,-0.15039 93.0408,0 370.5947,-11.53879 567.5332,-38.42188 -196.9257,-26.88223 -474.4838,-38.41992 -567.5254,-38.41992 -103.3122,0 -439.65649,-0.15039 -591.24997,-0.15039 z"
       style="fill:#ffffff;fill-opacity:1;stroke:none;stroke-width:0.96146600000000004px;stroke-linecap:butt;stroke-linejoin:miter;stroke-opacity:1;opacity:1"
       id="path73"
       transform="scale(0.26458333)" />
    <path
       sodipodi:nodetypes="ccscccsccc"
       id="path943"
       d="m 126.69607,47.344524 c 0,-2.134054 30.18685,-4.942766 69.84482,-4.942766 64.54923,0 70.76556,0.129223 111.85834,0.129223 56.42183,0 63.33523,0.678418 73.20462,1.308378 l 14.18219,5.889554 -14.18219,5.889554 c -9.86939,0.62996 -16.78279,1.308378 -73.20462,1.308378 -41.09278,0 -47.30911,0.129223 -111.85834,0.129223 -39.65797,0 -69.84481,-2.808712 -69.84481,-4.942766 z"
       style="fill:#c6c6c6;fill-opacity:1;stroke:none;stroke-width:0.26458300000000001px;stroke-linecap:butt;stroke-linejoin:miter;stroke-opacity:1" />
    <path
       id="path1526-1"
       style="fill:#eade13;stroke:none;stroke-width:0.99999899999999997px;stroke-linecap:butt;stroke-linejoin:miter;stroke-opacity:1;fill-opacity:1"
       d="M 1352.2578 16.859375 C 1361.1862 23.487631 1370.32 30.842404 1379.5273 39.050781 C 1370.3204 47.25877 1361.1877 54.616127 1352.2598 61.244141 C 1367.2322 60.098653 1382.2378 58.884911 1397.2129 57.609375 C 1404.0805 51.896734 1410.8264 45.722299 1417.3223 39.050781 C 1410.8264 32.379264 1404.0805 26.206781 1397.2129 20.494141 C 1382.2376 19.218641 1367.2306 18.004818 1352.2578 16.859375 z "
       transform="matrix(0.26458333,0,0,0.26458333,76.0725,39.396491)" />
    <path
       id="path1806"
       style="fill:#4745b8;stroke:none;stroke-width:0.99999899999999997px;stroke-linecap:butt;stroke-linejoin:miter;stroke-opacity:1;fill-opacity:1"
       d="M 1256.0918 10.294922 C 1270.958 18.582923 1286.9594 28.101314 1303.9375 39.050781 C 1286.9586 50.000757 1270.9566 59.520324 1256.0898 67.808594 C 1272.1214 66.838933 1288.4024 65.796545 1304.8691 64.671875 C 1316.7845 57.126378 1329.1461 48.626049 1341.7324 39.050781 C 1329.1469 29.476118 1316.7858 20.976783 1304.8711 13.431641 C 1288.4051 12.307099 1272.1226 11.26447 1256.0918 10.294922 z "
       transform="matrix(0.26458333,0,0,0.26458333,76.0725,39.396491)" />
  </g>
</svg>
