<?xml version="1.0" encoding="UTF-8" standalone="no"?>
<svg
   xmlns:dc="http://purl.org/dc/elements/1.1/"
   xmlns:cc="http://creativecommons.org/ns#"
   xmlns:rdf="http://www.w3.org/1999/02/22-rdf-syntax-ns#"
   xmlns:svg="http://www.w3.org/2000/svg"
   xmlns="http://www.w3.org/2000/svg"
   xmlns:sodipodi="http://sodipodi.sourceforge.net/DTD/sodipodi-0.dtd"
   xmlns:inkscape="http://www.inkscape.org/namespaces/inkscape"
   width="415.41135mm"
   height="20.66503mm"
   viewBox="0 0 415.41135 20.66503"
   version="1.1"
   id="svg8"
   sodipodi:docname="boat-christs.svg"
   inkscape:version="1.0 (4035a4f, 2020-05-01)">
  <defs
     id="defs2" />
  <sodipodi:namedview
     id="base"
     pagecolor="#fbffff"
     bordercolor="#666666"
     borderopacity="1.0"
     inkscape:pageopacity="1"
     inkscape:pageshadow="2"
     inkscape:zoom="1"
     inkscape:cx="489.627"
     inkscape:cy="-38.495558"
     inkscape:document-units="mm"
     inkscape:current-layer="layer2"
     inkscape:document-rotation="0"
     showgrid="false"
     inkscape:snap-nodes="true"
     inkscape:object-nodes="true"
     inkscape:snap-others="false"
     inkscape:snap-bbox="false"
     showguides="true"
     inkscape:pagecheckerboard="true"
     inkscape:snap-midpoints="false"
     inkscape:window-width="1920"
     inkscape:window-height="1080"
     inkscape:window-x="0"
     inkscape:window-y="0"
     inkscape:window-maximized="0">
    <sodipodi:guide
       position="0.022079075,10.332775"
       orientation="0,1889.7638"
       id="guide2944" />
  </sodipodi:namedview>
  <metadata
     id="metadata5">
    <rdf:RDF>
      <cc:Work
         rdf:about="">
        <dc:format>image/svg+xml</dc:format>
        <dc:type
           rdf:resource="http://purl.org/dc/dcmitype/StillImage" />
        <dc:title />
      </cc:Work>
    </rdf:RDF>
  </metadata>
  <g
     inkscape:groupmode="layer"
     id="layer2"
     inkscape:label="Layer 2"
     transform="translate(-76.0725,-39.396491)">
    <path
       id="path73"
       style="fill:#ffffff;fill-opacity:1;stroke:none;stroke-width:0.96146600000000004px;stroke-linecap:butt;stroke-linejoin:miter;stroke-opacity:1"
       d="m 698.73633,149.38086 c -91.0862,0 -278.5458,15.20105 -411.13477,38.57031 132.58776,23.37002 320.04553,38.57227 411.13086,38.57227 151.59217,0 487.93478,-0.15039 591.24608,-0.15039 93.0408,0 370.5947,-11.53879 567.5332,-38.42188 -196.9257,-26.88223 -474.4838,-38.41992 -567.5254,-38.41992 -103.3122,0 -439.65649,-0.15039 -591.24997,-0.15039 z"
       transform="scale(0.26458333)" />
    <path
       style="fill:#c6c6c6;fill-opacity:1;stroke:none;stroke-width:0.26458300000000001px;stroke-linecap:butt;stroke-linejoin:miter;stroke-opacity:1"
       d="m 126.69607,47.344524 c 0,-2.134054 30.18685,-4.942766 69.84482,-4.942766 64.54923,0 70.76556,0.129223 111.85834,0.129223 56.42183,0 63.33523,0.678418 73.20462,1.308378 l 14.18219,5.889554 -14.18219,5.889554 c -9.86939,0.62996 -16.78279,1.308378 -73.20462,1.308378 -41.09278,0 -47.30911,0.129223 -111.85834,0.129223 -39.65797,0 -69.84481,-2.808712 -69.84481,-4.942766 z"
       id="path943"
       sodipodi:nodetypes="ccscccsccc" />
    <path
       id="path2954"
       style="fill:#001277;fill-opacity:1;stroke:none;stroke-width:0.96146600000000004px;stroke-linecap:butt;stroke-linejoin:miter;stroke-opacity:1"
       d="M 30.097656 34.050781 C 19.847616 35.673381 9.8038543 37.337621 0.083984375 39.050781 C 9.8037643 40.764001 19.847716 42.428131 30.097656 44.050781 L 191.33398 44.050781 L 191.33398 34.050781 L 30.097656 34.050781 z M 1196.3262 34.050781 L 1208.3652 39.050781 L 1196.3262 44.050781 L 1531.0117 44.050781 C 1544.2892 42.446111 1557.3142 40.781661 1569.9941 39.050781 C 1557.315 37.319961 1544.2906 35.655401 1531.0137 34.050781 L 1196.3262 34.050781 z "
       transform="matrix(0.26458333,0,0,0.26458333,76.0725,39.396491)" />
  </g>
</svg>
