<?xml version="1.0" encoding="UTF-8" standalone="no"?>
<svg
   xmlns:dc="http://purl.org/dc/elements/1.1/"
   xmlns:cc="http://creativecommons.org/ns#"
   xmlns:rdf="http://www.w3.org/1999/02/22-rdf-syntax-ns#"
   xmlns:svg="http://www.w3.org/2000/svg"
   xmlns="http://www.w3.org/2000/svg"
   xmlns:sodipodi="http://sodipodi.sourceforge.net/DTD/sodipodi-0.dtd"
   xmlns:inkscape="http://www.inkscape.org/namespaces/inkscape"
   sodipodi:docname="boat-peterhouse.svg"
   inkscape:version="1.0 (4035a4f, 2020-05-01)"
   id="svg8"
   version="1.1"
   viewBox="0 0 415.41135 20.66503"
   height="20.66503mm"
   width="415.41135mm">
  <defs
     id="defs2" />
  <sodipodi:namedview
     inkscape:window-maximized="0"
     inkscape:window-y="23"
     inkscape:window-x="0"
     inkscape:window-height="1035"
     inkscape:window-width="1920"
     inkscape:snap-midpoints="false"
     inkscape:pagecheckerboard="true"
     showguides="true"
     inkscape:snap-bbox="false"
     inkscape:snap-others="false"
     inkscape:object-nodes="true"
     inkscape:snap-nodes="true"
     showgrid="false"
     inkscape:document-rotation="0"
     inkscape:current-layer="layer2"
     inkscape:document-units="mm"
     inkscape:cy="-39.506665"
     inkscape:cx="959.94959"
     inkscape:zoom="0.98901497"
     inkscape:pageshadow="2"
     inkscape:pageopacity="1"
     borderopacity="1.0"
     bordercolor="#666666"
     pagecolor="#fbffff"
     id="base">
    <sodipodi:guide
       id="guide2944"
       orientation="0,1889.7638"
       position="0.022079075,10.332775" />
  </sodipodi:namedview>
  <metadata
     id="metadata5">
    <rdf:RDF>
      <cc:Work
         rdf:about="">
        <dc:format>image/svg+xml</dc:format>
        <dc:type
           rdf:resource="http://purl.org/dc/dcmitype/StillImage" />
        <dc:title></dc:title>
      </cc:Work>
    </rdf:RDF>
  </metadata>
  <g
     transform="translate(-76.0725,-39.396491)"
     inkscape:label="Layer 2"
     id="layer2"
     inkscape:groupmode="layer">
    <path
       transform="scale(0.26458333)"
       d="m 698.73633,149.38086 c -91.0862,0 -278.5458,15.20105 -411.13477,38.57031 132.58776,23.37002 320.04553,38.57227 411.13086,38.57227 151.59217,0 487.93478,-0.15039 591.24608,-0.15039 93.0408,0 370.5947,-11.53879 567.5332,-38.42188 -196.9257,-26.88223 -474.4838,-38.41992 -567.5254,-38.41992 -103.3122,0 -439.65649,-0.15039 -591.24997,-0.15039 z"
       style="fill:#ffffff;fill-opacity:1;stroke:none;stroke-width:0.96146600000000004px;stroke-linecap:butt;stroke-linejoin:miter;stroke-opacity:1;opacity:0.99700002"
       id="path73" />
    <path
       sodipodi:nodetypes="ccscccsccc"
       id="path943"
       d="m 126.69607,47.344524 c 0,-2.134054 30.18685,-4.942766 69.84482,-4.942766 64.54923,0 70.76556,0.129223 111.85834,0.129223 56.42183,0 63.33523,0.678418 73.20462,1.308378 l 14.18219,5.889554 -14.18219,5.889554 c -9.86939,0.62996 -16.78279,1.308378 -73.20462,1.308378 -41.09278,0 -47.30911,0.129223 -111.85834,0.129223 -39.65797,0 -69.84481,-2.808712 -69.84481,-4.942766 z"
       style="fill:#c6c6c6;fill-opacity:1;stroke:none;stroke-width:0.26458300000000001px;stroke-linecap:butt;stroke-linejoin:miter;stroke-opacity:1" />
    <path
       transform="matrix(0.26458333,0,0,0.26458333,76.0725,39.396491)"
       d="M 1226.3809 8.5605469 L 1270.5527 66.919922 C 1285.406 65.987786 1300.4606 64.985257 1315.6309 63.921875 L 1275.9746 11.529297 C 1259.1626 10.4599 1242.5785 9.465902 1226.3809 8.5605469 z M 1293.2051 12.648438 L 1331.1777 62.816406 C 1346.0411 61.734967 1360.9788 60.586446 1375.9219 59.376953 L 1343.2246 16.177734 C 1326.4345 14.920593 1309.7299 13.745352 1293.2051 12.648438 z "
       style="opacity:0.997;fill:#1a53d2;fill-opacity:1;stroke:none;stroke-width:1.39443;stroke-opacity:1"
       id="rect2990" />
  </g>
</svg>
